<?xml version="1.0" encoding="UTF-8"?>
<svg version="1.1" viewBox="0 0 581.33 376.67" xmlns="http://www.w3.org/2000/svg">
 <g transform="translate(56.382 -504.45)">
  <g transform="translate(982.81 -214.73)" fill="#483737" stroke="#fff" stroke-width="5">
   <path d="m-834.62 881.91s10.094-93.366 57.408-132.48 85.165-27.758 116.08-20.187 73.81 17.664 76.333 22.08-6.3085 11.355-6.3085 11.355-28.388-15.14-49.838-2.5234c-21.449 12.617-58.039 35.959-36.59 90.843s21.449 54.884 21.449 54.884l-70.025 71.287z"/>
   <path d="m-854.81 1020.1s-21.449-93.366-69.394-82.642c-47.945 10.725-70.656 92.736-70.656 92.736l-9.7714-3.1543s13.556-121.12 43.838-162.13c30.281-41.006 80.749-78.226 164.65 18.295 83.904 96.521 83.904 131.22 83.904 131.22z"/>
   <path d="m-645.67 1020.1s30.912-85.165 78.857-74.441c47.945 10.725 70.025 76.964 70.025 76.964l11.664-6.3086s10.859-71.091-17.342-113.55c-54.884-82.642-134.74-33.437-191.15-3.7851-41.92 22.035-78.226 118.6-78.226 118.6z"/>
   <path d="m-855.58 1046.1c-0.89093-10.64-7.1373-31.226-7.1373-31.226s66.955-12.879 100.81-12.49c38.774 0.4453 115.09 16.951 115.09 16.951s-6.3516 25.406-8.0295 38.363c-1.4914 11.517-1.7843 34.794-1.7843 34.794s-67.43-15.211-101.71-15.167c-33.689 0.044-99.922 15.167-99.922 15.167 3.5639-15.015 3.969-30.957 2.6765-46.392z"/>
   <path transform="translate(-11.598 317.61)" d="m-529.05 446.58c0 16.753-13.581 30.334-30.334 30.334s-30.334-13.581-30.334-30.334 13.581-30.334 30.334-30.334 30.334 13.581 30.334 30.334z" color="#000000"/>
   <path transform="translate(68.697 592.4)" d="m-529.05 446.58c0 16.753-13.581 30.334-30.334 30.334s-30.334-13.581-30.334-30.334 13.581-30.334 30.334-30.334 30.334 13.581 30.334 30.334z" color="#000000"/>
   <path transform="translate(-446.97 595.96)" d="m-529.05 446.58c0 16.753-13.581 30.334-30.334 30.334s-30.334-13.581-30.334-30.334 13.581-30.334 30.334-30.334 30.334 13.581 30.334 30.334z" color="#000000"/>
  </g>
 </g>
</svg>
